<svg width="156" height="48" viewBox="0 0 156 48" fill="none" xmlns="http://www.w3.org/2000/svg">
<path d="M56.5593 30.0502C52.5899 30.0502 50.0151 27.1883 50.0151 24.2097V23.8405C50.0151 20.8114 52.5899 18 56.5593 18C60.5287 18 63.1256 20.8114 63.1256 23.8405V24.2097C63.1256 27.1883 60.5508 30.0502 56.5593 30.0502ZM61.002 23.8721C61.002 21.7012 59.4244 19.7701 56.5593 19.7701C53.6943 19.7701 52.1418 21.7044 52.1418 23.8721V24.1434C52.1418 26.3143 53.7195 28.2832 56.5593 28.2832C59.3991 28.2832 61.002 26.3143 61.002 24.1434V23.8721Z" fill="#3499CD"/>
<path d="M11.7126 29.6116L10.2328 26.8349H3.65073L2.20874 29.6116H0L6.05825 18.4038H7.80946L13.9687 29.6116H11.7126ZM6.88179 20.5905L4.44272 25.3045H9.40606L6.88179 20.5905Z" fill="#010101"/>
<path d="M23.5263 30.0502C19.5032 30.0502 17.6353 27.8604 17.6353 24.9511V18.4038H19.7241V24.9827C19.7241 27.0526 21.0872 28.2832 23.6777 28.2832C26.3377 28.2832 27.4294 27.0526 27.4294 24.9827V18.4038H29.534V24.9417C29.534 27.7278 27.767 30.0502 23.5263 30.0502Z" fill="#010101"/>
<path d="M41.2468 20.155V29.621H39.1422V20.155H34.2451V18.4038H46.1439V20.155H41.2468Z" fill="#010101"/>
<path d="M81.8714 29.6116V20.7419L81.3161 21.7201L76.6209 29.6084H75.5954L70.9508 21.7201L70.3954 20.7419V29.6116H68.3413V18.4038H71.2537L75.6712 26.0934L76.1949 27.04L76.7156 26.0934L81.092 18.4038H83.9697V29.6116H81.8714Z" fill="#010101"/>
<path d="M99.879 29.6116L98.396 26.8349H91.8202L90.3909 29.6116H88.1821L94.2404 18.4038H95.9884L102.132 29.6116H99.879ZM95.0481 20.5905L92.6091 25.3045H97.5724L95.0481 20.5905Z" fill="#010101"/>
<path d="M110.614 20.155V29.621H108.512V20.155H103.615V18.4038H115.511V20.155H110.614Z" fill="#010101"/>
<path d="M126.046 20.155V29.621H123.942V20.155H119.044V18.4038H130.946V20.155H126.046Z" fill="#010101"/>
<path d="M136.127 29.6116V19.464C136.967 19.464 137.304 19.0096 137.304 18.4038H138.204V29.6116H136.127Z" fill="#010101"/>
<path d="M154.671 21.5687C153.464 20.4182 151.862 19.7736 150.194 19.767C147.2 19.767 145.515 21.8211 145.515 23.9573V24.175C145.515 26.2954 147.215 28.2769 150.345 28.2769C151.983 28.2461 153.55 27.6034 154.738 26.4752L156 27.8036C154.425 29.271 152.346 30.0756 150.194 30.0502C145.953 30.0502 143.378 27.2893 143.378 24.2602V23.891C143.378 20.8619 146.19 18 150.295 18C152.668 18 154.823 18.9939 155.975 20.2371L154.671 21.5687Z" fill="#010101"/>
<path d="M57.9479 21.9001C58.0401 21.9588 58.1196 22.0355 58.1817 22.1256C58.2437 22.2156 58.287 22.3172 58.3091 22.4243C58.3312 22.5314 58.3315 22.6419 58.3101 22.7491C58.2887 22.8563 58.246 22.9582 58.1846 23.0486L56.2661 26.0209C56.2084 26.1116 56.1333 26.1899 56.0453 26.2515C55.9573 26.3131 55.8579 26.3567 55.753 26.3798C55.6481 26.403 55.5396 26.4052 55.4339 26.3864C55.3281 26.3676 55.227 26.3281 55.1365 26.2702C54.9546 26.1509 54.8273 25.9645 54.7824 25.7517C54.7375 25.5389 54.7786 25.3169 54.8967 25.1343L56.8152 22.162C56.9329 21.9793 57.1182 21.8507 57.3306 21.8046C57.543 21.7585 57.765 21.7985 57.9479 21.9159V21.9001Z" fill="#010101"/>
</svg>
