<svg width="89" height="48" viewBox="0 0 89 48" fill="none" xmlns="http://www.w3.org/2000/svg">
<path fill-rule="evenodd" clip-rule="evenodd" d="M17.8174 26.575C17.8174 22.4882 21.1623 20.1262 25.5537 20.1262C29.9451 20.1262 33.29 22.4882 33.29 26.575C33.29 30.6379 29.9451 32.9999 25.5537 32.9999C21.1623 32.9999 17.8174 30.6379 17.8174 26.575ZM28.5411 26.575C28.5411 24.7323 27.6724 23.1023 25.5537 23.1023C23.435 23.1023 22.5664 24.7323 22.5664 26.575C22.5664 28.3938 23.435 30.0239 25.5537 30.0239C27.6724 30.0239 28.5411 28.3938 28.5411 26.575Z" fill="#3798D4"/>
<path fill-rule="evenodd" clip-rule="evenodd" d="M33.9497 26.575C33.9497 22.4882 37.2946 20.1262 41.686 20.1262C46.0774 20.1262 49.4217 22.4882 49.4217 26.575C49.4217 30.6379 46.0774 32.9999 41.686 32.9999C37.2946 32.9999 33.9497 30.6379 33.9497 26.575ZM41.686 23.1023C39.5667 23.1023 38.6988 24.7323 38.6988 26.575C38.6988 28.3938 39.5667 30.0239 41.686 30.0239C43.8047 30.0239 44.6728 28.3938 44.6728 26.575C44.6728 24.7323 43.8047 23.1023 41.686 23.1023Z" fill="#3798D4"/>
<path fill-rule="evenodd" clip-rule="evenodd" d="M4.7489 19.0725H6.58667C10.0592 19.0725 12.1277 20.7728 12.1277 24.0565C12.1277 27.3401 10.0592 29.0404 6.58667 29.0404H4.7489V19.0725ZM17.0294 23.9855C17.0294 17.6077 12.6889 15.8127 6.4837 15.8127H0V32.3008H6.4837C12.6889 32.3008 17.0294 30.5058 17.0294 24.1274C17.0294 24.103 17.0281 24.0803 17.0281 24.0565C17.0281 24.0326 17.0294 24.0099 17.0294 23.9855Z" fill="#3798D4"/>
<path fill-rule="evenodd" clip-rule="evenodd" d="M67.2212 15H71.8167V32.7169H67.2212V15Z" fill="#3798D4"/>
<path fill-rule="evenodd" clip-rule="evenodd" d="M57.8169 30.024C55.6981 30.024 54.8295 28.3939 54.8295 26.5751C54.8295 24.7324 55.6981 23.1024 57.8169 23.1024C59.9356 23.1024 60.8034 24.7324 60.8034 26.5751C60.8034 28.3939 59.9356 30.024 57.8169 30.024ZM60.9574 15V20.5851C60.0052 20.2834 58.9462 20.1263 57.8169 20.1263C53.4255 20.1263 50.0806 22.4883 50.0806 26.5751C50.0806 30.638 53.4255 33 57.8169 33C58.9462 33 60.1442 32.558 60.9574 32.0841V32.7167H65.5531V15H60.9574Z" fill="#3798D4"/>
<path fill-rule="evenodd" clip-rule="evenodd" d="M78.1958 25.3916C78.512 24.0885 79.3999 23.1023 81.0467 23.1023C82.6927 23.1023 83.5822 24.0885 83.8977 25.3916H78.1958ZM83.0541 20.4101C82.3766 20.2274 81.6123 20.1262 80.75 20.1262C80.7174 20.1262 80.6847 20.128 80.6514 20.128C80.6162 20.128 80.5816 20.1262 80.5459 20.1262C76.155 20.1262 72.8101 22.4882 72.8101 26.575C72.8101 30.6379 76.155 32.9999 80.5459 32.9999C80.6841 32.9999 80.8205 32.9981 80.9555 32.9935C81.0907 32.9981 81.2271 32.9999 81.3635 32.9999C83.0742 32.9999 84.7599 32.7644 86.2407 32.2206V29.2207C84.8618 29.9058 83.4319 30.1657 82.1806 30.1657C81.5922 30.1657 81.0636 30.1185 80.5974 30.0215C79.2793 29.7464 78.4622 29.0585 78.2737 27.8031H88.1714C88.2035 27.6287 88.2299 27.4518 88.2488 27.2704C88.2707 27.0448 88.2828 26.8128 88.2828 26.575C88.2828 23.3117 86.1496 21.1496 83.0541 20.4101Z" fill="#3798D4"/>
</svg>
