<svg width="35" height="48" viewBox="0 0 35 48" fill="none" xmlns="http://www.w3.org/2000/svg">
<path fill-rule="evenodd" clip-rule="evenodd" d="M31.3403 4H3.13036C0.843843 4 0 4.84385 0 7.13142V34.7346C0 34.9935 0.0104393 35.234 0.0333073 35.4567C0.0853639 35.9561 0.0951647 36.4399 0.559555 36.9908C0.604936 37.0448 1.07906 37.3976 1.07906 37.3976C1.33408 37.5227 1.50822 37.6148 1.79585 37.7305L15.6868 43.5504C16.4079 43.881 16.7095 44.0098 17.2332 43.9994V43.9995C17.2339 43.9995 17.2346 43.9995 17.2353 43.9995C17.236 43.9995 17.2366 43.9995 17.2373 43.9995V43.9994C17.7611 44.0098 18.0626 43.881 18.7838 43.5504L32.6747 37.7305C32.9624 37.6148 33.1365 37.5227 33.3916 37.3976C33.3916 37.3976 33.8657 37.0448 33.911 36.9908C34.3754 36.4399 34.3852 35.9561 34.4372 35.4567C34.4601 35.234 34.4706 34.9935 34.4706 34.7346V7.13142C34.4706 4.84385 33.6267 4 31.3403 4Z" fill="#2F2D2E"/>
<path d="M29.4509 31.7516L29.4446 31.8153L29.4382 31.8853L29.4255 31.949L29.4064 32.0126L29.3941 32.0699L29.3749 32.1336L29.3495 32.191L29.324 32.2419L29.2989 32.2992L29.2671 32.3501L29.2353 32.4011L29.1974 32.452L29.1655 32.5029L29.1277 32.5475L29.0831 32.5921L29.0453 32.6303L28.9944 32.6749L28.9502 32.7131L28.8993 32.7513L28.8487 32.7827L28.7981 32.8209L28.7408 32.8527L28.6839 32.8782L28.627 32.91L28.5633 32.9355L28.5 32.961L28.4367 32.98L28.3735 32.9992L28.3161 33.0182L28.2529 33.031L28.1959 33.0437L28.139 33.0565L28.0753 33.0692L28.012 33.0756L27.9551 33.082L27.8914 33.0883L27.8218 33.0947L27.7584 33.1011H27.6952H27.6255H27.5555H27.4922L27.4288 33.0947H27.3592L27.2959 33.0883L27.2323 33.082L27.1626 33.0756L27.0993 33.0628L27.036 33.0565L26.9723 33.0437L26.909 33.031L26.8457 33.0182L26.7824 33.0055L26.7188 32.9865L26.6618 32.9737L26.5986 32.9546L26.5352 32.9355L26.478 32.91L26.4147 32.8909L26.3577 32.8719L26.2944 32.8464L26.2371 32.8209L26.1802 32.7954L26.1232 32.764L26.066 32.7385L26.009 32.7066L25.9585 32.6749L25.9012 32.643L25.8506 32.6112L25.7997 32.5794L25.7491 32.5411L25.6985 32.5029L25.6476 32.4647L25.597 32.4265L25.5525 32.3883L25.5019 32.3438L25.5401 32.2929L25.5843 32.2483L25.6225 32.1973L25.6667 32.1464L25.7049 32.1018L25.7427 32.0509L25.7873 31.9999L25.8251 31.9554L25.8697 31.9045L25.9075 31.8599L25.9521 31.8089L25.9899 31.758L26.0281 31.7134L26.0723 31.6625L26.1105 31.6115L26.1547 31.567L26.1929 31.5161L26.2435 31.5543L26.3004 31.5925L26.3513 31.6307L26.4083 31.6689L26.4592 31.7007L26.5162 31.7388L26.5667 31.7707L26.6241 31.7962L26.6745 31.828L26.7315 31.8535L26.7888 31.879L26.8457 31.9045L26.9027 31.9236L26.96 31.949L27.0232 31.9681L27.0866 31.9872L27.1435 32.0063L27.2072 32.0191L27.2705 32.0318L27.3337 32.0445L27.4034 32.0509L27.467 32.0636H27.5304L27.6 32.0699H27.6633H27.7393L27.809 32.0636L27.8727 32.0509L27.9296 32.0381L27.9865 32.0254L28.0375 32.0063L28.0817 31.9809L28.1326 31.9427L28.1704 31.8981L28.1959 31.8471L28.2151 31.7898L28.2213 31.7261V31.7134L28.2151 31.637L28.1896 31.5733L28.1577 31.5288L28.1135 31.4906L28.0625 31.4524L28.012 31.4269L27.9551 31.4014L27.8914 31.3759L27.8154 31.3442L27.7711 31.3314L27.7206 31.3187L27.6633 31.2995L27.6064 31.2868L27.5431 31.2677L27.4794 31.255L27.4098 31.2359L27.3465 31.2232L27.2768 31.2041L27.2135 31.1914L27.1498 31.1723L27.0866 31.1595L27.0232 31.1404L26.9659 31.1213L26.9027 31.1086L26.8457 31.0895L26.7888 31.0704L26.7315 31.0512L26.6618 31.0258L26.5986 31.0003L26.5352 30.9748L26.4716 30.9493L26.4147 30.9175L26.3513 30.8857L26.3004 30.8539L26.2435 30.8221L26.1929 30.7839L26.142 30.752L26.0978 30.7138L26.0533 30.6692L26.009 30.6246L25.9708 30.58L25.933 30.5355L25.9012 30.491L25.8697 30.44L25.8379 30.3827L25.8124 30.3386L25.7933 30.2876L25.7746 30.2303L25.7555 30.1794L25.7427 30.1156L25.73 30.0583L25.7236 29.9947L25.7173 29.931L25.7109 29.861V29.7909V29.7782V29.7145L25.7173 29.6509L25.7236 29.5936L25.73 29.5299L25.7427 29.4726L25.7555 29.4153L25.7746 29.3579L25.7873 29.3007L25.8124 29.2434L25.8379 29.1861L25.8633 29.1288L25.8948 29.0715L25.9266 29.0142L25.9644 28.9632L26.0027 28.9123L26.0469 28.8614L26.0914 28.8169L26.1357 28.7659L26.1866 28.7213L26.2308 28.6895L26.2817 28.6512L26.3323 28.613L26.3828 28.5812L26.4401 28.5494L26.4971 28.5239L26.554 28.4921L26.6113 28.4667L26.6745 28.4475L26.7378 28.4221L26.7951 28.403L26.8457 28.3902L26.9027 28.3775L26.96 28.3648L27.0232 28.352L27.0802 28.3393L27.1435 28.3329L27.2072 28.3265L27.2705 28.3202L27.3337 28.3138H27.397H27.467H27.5368H27.6064L27.6761 28.3202L27.7457 28.3265H27.809L27.879 28.3329L27.9423 28.3456L28.012 28.352L28.0753 28.3648L28.1326 28.3775L28.1959 28.3902L28.2592 28.403L28.3161 28.4157L28.3798 28.4348L28.4367 28.4539L28.4937 28.4667L28.5573 28.4921L28.6143 28.5112L28.6712 28.5366L28.7281 28.5621L28.7918 28.5876L28.8487 28.6194L28.8993 28.6449L28.9566 28.6767L29.0135 28.7086L29.0641 28.7404L29.1214 28.7787L29.172 28.8104L29.2229 28.8487L29.2735 28.8869L29.324 28.925L29.2862 28.976L29.2544 29.0269L29.2165 29.0779L29.1783 29.1288L29.1405 29.1861L29.1086 29.237L29.0704 29.288L29.0326 29.3389L29.0008 29.3898L28.9629 29.4408L28.9248 29.4917L28.8929 29.5427L28.8551 29.6L28.8168 29.6509L28.779 29.7018L28.7472 29.7527L28.7094 29.8037L28.6585 29.7655L28.6016 29.7336L28.5509 29.7018L28.5 29.6636L28.4431 29.6382L28.3921 29.6063L28.3352 29.5808L28.2847 29.5554L28.2274 29.5299L28.1768 29.5045L28.1199 29.4854L28.069 29.4599L27.9993 29.4408L27.936 29.4217L27.8727 29.4026L27.809 29.3898L27.7457 29.3771L27.6824 29.3643L27.6192 29.3579L27.5555 29.3516L27.4986 29.3452H27.4352H27.3592L27.2896 29.3579L27.2259 29.3707L27.169 29.3834L27.1184 29.4089L27.0738 29.4344L27.0169 29.4854L26.9786 29.5427L26.9536 29.6L26.9472 29.6636V29.6764L26.9536 29.7591L26.985 29.8292L27.0105 29.8674L27.0547 29.912L27.112 29.9438L27.1626 29.9756L27.2259 30.0011L27.2959 30.0266L27.372 30.052L27.4225 30.0647L27.4731 30.0838L27.5304 30.0965L27.5873 30.1156L27.6506 30.1284L27.7206 30.1475L27.7903 30.1666L27.86 30.1857L27.9296 30.1985L27.9929 30.2176L28.0625 30.2367L28.1262 30.2494L28.1896 30.2685L28.2529 30.2876L28.3097 30.3067L28.3735 30.3258L28.4304 30.3449L28.4873 30.364L28.5573 30.3891L28.6206 30.421L28.6839 30.4464L28.7472 30.4782L28.8045 30.5101L28.8615 30.5419L28.912 30.5737L28.9629 30.6119L29.0135 30.6437L29.0641 30.6883L29.115 30.7329L29.1592 30.7839L29.2037 30.8284L29.2416 30.8794L29.2798 30.9366L29.3113 30.9875L29.3431 31.0449L29.3686 31.0958L29.3877 31.1531L29.4064 31.2104L29.4191 31.2677L29.4318 31.3314L29.4446 31.3951L29.4509 31.4588L29.4573 31.5288V31.5988V31.6115V31.6816L29.4509 31.7516ZM25.0056 33.0247H24.942H24.8787H24.8154H24.7521H24.6884H24.6251H24.5619H24.4985H24.4285H24.3652H24.302H24.2387H24.1749H24.1117H24.0484H23.9851H23.9214H23.8581H23.7948H23.7315H23.6682H23.6046H23.5413H23.478H23.4147H23.3509H23.2877H23.2244H23.1547H23.0911H23.0277H22.9645H22.9012H22.8376H22.7742H22.7109H22.6476H22.584H22.5207H22.4574H22.394H22.3303H22.2671H22.2038H22.1405H22.0769H22.0135H21.9439H21.8806H21.8173H21.7536H21.6903H21.627H21.5638H21.5001H21.4368H21.3735V32.961V32.8973V32.8337V32.7703V32.7066V32.643V32.5794V32.5157V32.452V32.3883V32.3247V32.261V32.1973V32.1336V32.0699V32.0063V31.9427V31.879V31.8217V31.758V31.6943V31.6307V31.567V31.5033V31.4396V31.3759V31.3122V31.2486V31.185V31.1213V31.0576V30.9939V30.9303V30.8666V30.8029V30.7393V30.6756V30.6119V30.5483V30.4846V30.421V30.3576V30.294V30.2303V30.1666V30.1029V30.0393V29.9756V29.912V29.8483V29.7846V29.7209V29.6572V29.5936V29.5363V29.4726V29.4089V29.3452V29.2816V29.2179V29.1543V29.0906V29.0269V28.9632V28.8996V28.8359V28.7722V28.7086V28.6449V28.5812V28.5176V28.4539V28.3902H21.4368H21.5001H21.5638H21.627H21.6903H21.7536H21.8173H21.8806H21.9439H22.0072H22.0708H22.1342H22.1974H22.2607H22.318H22.3813H22.4446H22.508H22.5716H22.6349H22.6981H22.7615H22.8251H22.8884H22.9517H23.015H23.0787H23.142H23.2053H23.2686H23.3323H23.3956H23.4588H23.5221H23.5855H23.6492H23.7124H23.7757H23.839H23.9027H23.966H24.0292H24.0925H24.1499H24.2132H24.2765H24.3398H24.4034H24.4667H24.53H24.5933H24.657H24.7203H24.7835H24.8469H24.9105H24.9739H25.0371V28.4539V28.5112V28.5748V28.6385V28.7022V28.7595V28.8232V28.8869V28.9441V29.0078V29.0715V29.1288V29.1925V29.2561V29.3198V29.3771V29.4408H24.9739H24.9105H24.8469H24.7835H24.7203H24.657H24.5997H24.5364H24.4731H24.4098H24.3461H24.2829H24.2195H24.1562H24.0925H24.0292H23.966H23.9027H23.839H23.7821H23.7188H23.6555H23.5918H23.5286H23.4652H23.4019H23.3382H23.275H23.2117H23.1484H23.0847H23.0214H22.9645H22.9012H22.8376H22.7742H22.7109H22.6476H22.584V29.5045V29.5681V29.6317V29.6954V29.7591V29.8164V29.8801V29.9438V30.0074V30.0711V30.1348V30.1985H22.6476H22.7109H22.7742H22.8376H22.9012H22.9645H23.0277H23.0911H23.1484H23.2117H23.275H23.3382H23.4019H23.4652H23.5286H23.5918H23.6555H23.7188H23.7821H23.8454H23.909H23.9723H24.0356H24.099H24.1626H24.2259H24.2829H24.3461H24.4098H24.4731H24.5364H24.5997H24.6633H24.7267H24.7899V30.2621V30.3194V30.3827V30.4464V30.5037V30.5673V30.631V30.6883V30.752V30.8157V30.8794V30.9366V31.0003V31.064V31.1213V31.185H24.7267H24.6633H24.5997H24.5364H24.4731H24.4098H24.3461H24.2829H24.2259H24.1626H24.099H24.0356H23.9723H23.909H23.8454H23.7821H23.7188H23.6555H23.5918H23.5286H23.4652H23.4019H23.3382H23.275H23.2117H23.1484H23.0911H23.0277H22.9645H22.9012H22.8376H22.7742H22.7109H22.6476H22.584V31.2486V31.3187V31.3823V31.446V31.5161V31.5798V31.6434V31.7134V31.7771V31.8408V31.9108V31.9744H22.6476H22.7109H22.7742H22.8376H22.9012H22.9645H23.0277H23.0911H23.1547H23.2244H23.2877H23.3509H23.4147H23.478H23.5413H23.6046H23.6682H23.7315H23.7948H23.8581H23.9214H23.9851H24.0484H24.1117H24.1749H24.2387H24.302H24.3652H24.4285H24.4985H24.5619H24.6251H24.6884H24.7521H24.8154H24.8787H24.942H25.0056H25.069V32.0381V32.0954V32.1591V32.2228V32.2865V32.3438V32.4074V32.4711V32.5284V32.5921V32.6557V32.7131V32.7764V32.84V32.9036V32.961V33.0247H25.0056ZM20.3742 33.0247H20.3109H20.2476H20.1776H20.1143H20.051H19.9877H19.924H19.8607H19.7911H19.7278H19.6644H19.6008H19.5375H19.4743H19.4046H19.3409H19.2776H19.2143V32.961V32.8973V32.8337V32.77V32.7059V32.6423V32.5786V32.5149V32.4512V32.3876V32.3239V32.2599V32.1962V32.1325V32.0689V32.0052V31.9411V31.8774V31.8138V31.7501V31.6864V31.6228V31.5587V31.4951V31.4314V31.3677V31.3041V31.2404V31.1763V31.1126V31.049V30.9853V30.9217V30.858V30.7939V30.7303V30.6666V30.603V30.5393V30.4752V30.4116V30.3479V30.2842L19.1825 30.3351L19.1447 30.3928L19.1128 30.4438L19.075 30.4947L19.0432 30.552L19.0049 30.603L18.9735 30.6539L18.9416 30.7116L18.9038 30.7625L18.872 30.8134L18.8338 30.8644L18.8024 30.9221L18.7641 30.973L18.7327 31.0239L18.7008 31.0812L18.6626 31.1325L18.6311 31.1835L18.5929 31.2407L18.5615 31.2917L18.5233 31.3426L18.4919 31.4003L18.46 31.4513L18.4218 31.5022L18.3904 31.5595L18.3522 31.6108L18.3207 31.6617L18.2825 31.7127L18.2506 31.77L18.2191 31.8212L18.181 31.8722L18.1495 31.9295L18.1113 31.9805L18.0795 32.0314L18.0417 32.0891L18.0099 32.14H17.9847L17.9466 32.0827L17.9147 32.0314L17.8768 31.9741L17.845 31.9231L17.8072 31.8659L17.7754 31.8146L17.7376 31.7572L17.7057 31.7063L17.6675 31.649L17.636 31.5981L17.5978 31.5404L17.5664 31.4894L17.5282 31.4321L17.4963 31.3812L17.4585 31.3235L17.4267 31.2726L17.3889 31.2153L17.3507 31.1644L17.3188 31.1067L17.281 31.0558L17.2492 30.9985L17.2113 30.9476L17.1795 30.8898L17.1417 30.8389L17.1098 30.7816L17.0716 30.7307L17.0402 30.6734L17.002 30.622L16.9705 30.5648L16.9323 30.5138L16.9005 30.4565L16.8627 30.4056L16.8307 30.3479L16.793 30.297V30.3606V30.4243V30.488V30.552V30.6157V30.6793V30.743V30.8067V30.8707V30.9344V30.9917V31.0554V31.1191V31.1827V31.2468V31.3105V31.3741V31.4377V31.5014V31.5651V31.6291V31.6928V31.7565V31.8202V31.8839V31.9475V32.0116V32.0752V32.1389V32.2025V32.2662V32.3302V32.3876V32.4512V32.5149V32.5786V32.6423V32.7059V32.77V32.8337V32.8973V32.961V33.0247H16.7297H16.666H16.6027H16.5394H16.4761H16.4125H16.3492H16.2859H16.2225H16.1589H16.0956H16.0323H15.969H15.9054H15.8421H15.7787H15.7154H15.6518H15.5885V32.961V32.8973V32.8337V32.7703V32.7066V32.643V32.5794V32.5157V32.452V32.3883V32.3247V32.261V32.1973V32.1336V32.0699V32.0063V31.9427V31.879V31.8217V31.758V31.6943V31.6307V31.567V31.5033V31.4396V31.3759V31.3122V31.2486V31.185V31.1213V31.0576V30.9939V30.9303V30.8666V30.8029V30.7393V30.6756V30.6119V30.5483V30.4846V30.421V30.3576V30.294V30.2303V30.1666V30.1029V30.0393V29.9756V29.912V29.8483V29.7846V29.7209V29.6572V29.5936V29.5363V29.4726V29.4089V29.3452V29.2816V29.2179V29.1543V29.0906V29.0269V28.9632V28.8996V28.8359V28.7722V28.7086V28.6449V28.5812V28.5176V28.4539V28.3902H15.6518H15.7154H15.7724H15.8356H15.899H15.9626H16.0196H16.0828H16.1465H16.2098H16.2668H16.3301H16.3938H16.457H16.5139H16.5772H16.6409H16.7043H16.7611H16.8244H16.8881L16.9196 28.4412L16.9514 28.4984L16.9892 28.549L17.0211 28.6063L17.0529 28.6572L17.0843 28.7146L17.1162 28.7651L17.1541 28.8225L17.1858 28.8734L17.2177 28.9243L17.2492 28.9812L17.281 29.0322L17.3188 29.0894L17.3507 29.1404L17.3825 29.1973L17.4139 29.2482L17.4521 29.2991L17.484 29.3562L17.5154 29.407L17.5472 29.4643L17.5788 29.5153L17.617 29.5722L17.6488 29.6232L17.6802 29.6804L17.7121 29.731L17.7435 29.7819L17.7817 29.8392L17.8136 29.8902L17.845 29.9475L17.8768 29.9981L17.9083 30.0554L17.9466 30.1063L17.9784 30.1632L18.0099 30.2142L18.0417 30.1632L18.0735 30.1063L18.1113 30.0554L18.1431 29.9981L18.1746 29.9475L18.2064 29.8902L18.2443 29.8392L18.2761 29.7819L18.308 29.731L18.3394 29.6804L18.3776 29.6232L18.4091 29.5722L18.4409 29.5153L18.4727 29.4643L18.5105 29.407L18.5424 29.3562L18.5742 29.2991L18.6056 29.2482L18.6376 29.1973L18.6754 29.1404L18.7072 29.0894L18.739 29.0322L18.7705 28.9812L18.8087 28.9243L18.8402 28.8734L18.872 28.8225L18.9038 28.7651L18.9416 28.7146L18.9735 28.6572L19.0049 28.6063L19.0368 28.549L19.075 28.4984L19.1065 28.4412L19.1383 28.3902H19.2015H19.2649H19.3221H19.3855H19.4488H19.512H19.5694H19.6327H19.6959H19.7593H19.8166H19.8798H19.9431H20.0065H20.0637H20.1271H20.1903H20.2536H20.3109H20.3742H20.4375V28.4539V28.5176V28.5812V28.6449V28.7086V28.7722V28.8359V28.8996V28.9632V29.0269V29.0906V29.1543V29.2179V29.2816V29.3452V29.4089V29.4726V29.5363V29.5936V29.6572V29.7209V29.7846V29.8483V29.912V29.9756V30.0393V30.1029V30.1666V30.2303V30.294V30.3576V30.421V30.4846V30.5483V30.6119V30.6756V30.7393V30.8029V30.8666V30.9303V30.9939V31.0576V31.1213V31.185V31.2486V31.3122V31.3759V31.4396V31.5033V31.567V31.6307V31.6943V31.758V31.8217V31.879V31.9427V32.0063V32.0699V32.1336V32.1973V32.261V32.3247V32.3883V32.452V32.5157V32.5794V32.643V32.7066V32.7703V32.8337V32.8973V32.961V33.0247H20.3742ZM13.0196 31.115L13.0005 31.0573L12.9754 30.9936L12.9499 30.9363L12.9308 30.8786L12.9058 30.8213L12.8803 30.7576L12.8612 30.6999L12.8357 30.6426L12.8107 30.5854L12.7915 30.5277L12.766 30.464L12.7473 30.4067L12.7218 30.349L12.6963 30.2917L12.6773 30.2344L12.6521 30.1704L12.6267 30.113L12.6076 30.0558L12.5821 29.9981L12.557 29.9344L12.5379 29.8767L12.5125 29.8194L12.4874 29.8767L12.4683 29.9344L12.4429 29.9981L12.4174 30.0558L12.3986 30.113L12.3732 30.1704L12.3477 30.2344L12.3226 30.2917L12.3034 30.349L12.278 30.4067L12.2525 30.464L12.2338 30.5277L12.2083 30.5854L12.1829 30.6426L12.1638 30.6999L12.1387 30.7576L12.1132 30.8213L12.0878 30.8786L12.0691 30.9363L12.0436 30.9936L12.0181 31.0573L11.999 31.115L11.9739 31.1723H12.0372H12.1005H12.1638H12.2275H12.2907H12.354H12.4174H12.4811H12.5379H12.6012H12.6649H12.7282H12.7915H12.8548H12.9181H12.9817H13.045L13.0196 31.115ZM15.0102 33.0247H14.9466H14.8896H14.8264H14.7627H14.6994H14.636H14.5792H14.5155H14.4522H14.3889H14.3256H14.2619H14.205H14.1417H14.0783H14.0147H13.9514H13.8945H13.8312H13.7676L13.7424 32.9673L13.7233 32.91L13.6979 32.8527L13.6724 32.7891L13.6536 32.7321L13.6282 32.6749L13.6027 32.6176L13.584 32.5603L13.5586 32.5029L13.5331 32.4456L13.514 32.3883L13.4889 32.3247L13.4634 32.2674L13.4443 32.2101L13.4188 32.1527H13.3555H13.2922H13.229H13.1657H13.1084H13.045H12.9817H12.9181H12.8548H12.7915H12.7282H12.6649H12.6012H12.5379H12.4811H12.4174H12.354H12.2907H12.2275H12.1638H12.1005H12.0372H11.9739H11.9106H11.8533H11.7901H11.7267H11.663H11.5997L11.5747 32.2101L11.5555 32.2674L11.5301 32.3247L11.5046 32.3883L11.4859 32.4456L11.4605 32.5029L11.435 32.5603L11.4159 32.6176L11.3908 32.6749L11.3653 32.7321L11.3462 32.7891L11.321 32.8527L11.2956 32.91L11.2765 32.9673L11.251 33.0247H11.1877H11.1245H11.0612H10.9975H10.9342H10.8645H10.8013H10.7379H10.6743H10.611H10.5477H10.4844H10.4207H10.3575H10.2942H10.2245H10.1608H10.0975H10.0342H9.97091L9.99598 32.9673L10.0215 32.91L10.0469 32.8527L10.072 32.7891L10.0911 32.7321L10.1166 32.6749L10.1421 32.6176L10.1671 32.5603L10.1926 32.5029L10.2181 32.4392L10.2432 32.3819L10.2687 32.3247L10.2877 32.2674L10.3132 32.2101L10.3383 32.1527L10.3638 32.0891L10.3892 32.0318L10.4143 31.9744L10.4398 31.9172L10.4653 31.8599L10.4844 31.8026L10.5094 31.7388L10.5349 31.6816L10.5604 31.6243L10.5855 31.567L10.611 31.5097L10.6365 31.4524L10.6616 31.3887L10.6807 31.3314L10.7062 31.2741L10.7316 31.2168L10.7567 31.1595L10.7822 31.1022L10.8076 31.0385L10.8327 30.9812L10.8581 30.9239L10.8772 30.8666L10.9027 30.8094L10.9278 30.752L10.9533 30.6883L10.9788 30.631L11.0039 30.5737L11.0293 30.5164L11.0548 30.4592L11.0739 30.4018L11.099 30.3449L11.1245 30.2812L11.1499 30.224L11.175 30.1666L11.2005 30.1093L11.226 30.052L11.251 29.9947L11.2701 29.931L11.2956 29.8738L11.321 29.8164L11.3462 29.7591L11.3717 29.7018L11.3971 29.6445L11.4222 29.5808L11.4477 29.5236L11.4668 29.4663L11.4922 29.4089L11.5173 29.3516L11.5428 29.2943L11.5683 29.2307L11.5933 29.1734L11.6188 29.1161L11.6443 29.0587L11.663 29.0015L11.6885 28.9441L11.714 28.8805L11.7395 28.8232L11.7646 28.7659L11.7901 28.7086L11.8155 28.6512L11.8405 28.594L11.8597 28.5303L11.8851 28.473L11.9106 28.4157L11.9357 28.3584H11.999H12.0563H12.1196H12.1829H12.2466H12.3034H12.3667H12.4301H12.4938H12.5507H12.6139H12.6773H12.7409H12.7979H12.8612H12.9244H12.9881H13.045H13.1084L13.1338 28.4157L13.1593 28.473L13.1844 28.5303L13.2099 28.594L13.229 28.6512L13.254 28.7086L13.2795 28.7659L13.3049 28.8232L13.3304 28.8805L13.3555 28.9441L13.381 29.0015L13.4065 29.0587L13.4252 29.1161L13.4507 29.1734L13.4762 29.2307L13.5017 29.2943L13.5267 29.3516L13.5522 29.4089L13.5777 29.4663L13.6027 29.5236L13.6218 29.5808L13.6473 29.6445L13.6724 29.7018L13.6979 29.7591L13.7233 29.8164L13.7488 29.8738L13.7739 29.931L13.7993 29.9947L13.8185 30.052L13.8436 30.1093L13.869 30.1666L13.8945 30.224L13.92 30.2812L13.945 30.3449L13.9705 30.4018L13.996 30.4592L14.0147 30.5164L14.0401 30.5737L14.0656 30.631L14.0908 30.6883L14.1162 30.752L14.1417 30.8094L14.1672 30.8666L14.1923 30.9239L14.2114 30.9812L14.2368 31.0385L14.2619 31.1022L14.2873 31.1595L14.3128 31.2168L14.3383 31.2741L14.3634 31.3314L14.3889 31.3887L14.4079 31.4524L14.4331 31.5097L14.4585 31.567L14.484 31.6243L14.5091 31.6816L14.5346 31.7388L14.5601 31.8026L14.5856 31.8599L14.6042 31.9172L14.6297 31.9744L14.6552 32.0318L14.6803 32.0891L14.7057 32.1527L14.7312 32.2101L14.7566 32.2674L14.7817 32.3247L14.8009 32.3819L14.8264 32.4392L14.8514 32.5029L14.8769 32.5603L14.9023 32.6176L14.9274 32.6749L14.9529 32.7321L14.9784 32.7891L14.9975 32.8527L15.0225 32.91L15.048 32.9673L15.0735 33.0247H15.0102ZM9.45709 32.4328L9.40617 32.4711L9.36193 32.5029L9.311 32.5411L9.26044 32.573L9.20988 32.6112L9.15895 32.643L9.10839 32.6749L9.05108 32.7066L8.99412 32.7385L8.93716 32.7703L8.87992 32.7954L8.82296 32.8273L8.75969 32.8527L8.7028 32.8782L8.6391 32.9036L8.58221 32.9291L8.52518 32.9482L8.46794 32.9673L8.41099 32.9865L8.34771 33.0055L8.29082 33.0247L8.22712 33.0374L8.17016 33.0501L8.10689 33.0628L8.04325 33.0756L7.9799 33.082L7.91023 33.0883L7.84696 33.0947L7.77729 33.1011L7.71358 33.1074L7.64399 33.1138H7.57432H7.50458H7.43498H7.37127L7.308 33.1074L7.23833 33.1011L7.17505 33.0947L7.11177 33.0883L7.04807 33.082L6.98479 33.0692L6.92144 33.0565L6.86456 33.0437L6.80092 33.031L6.74397 33.0119L6.68069 32.9992L6.62338 32.98L6.56642 32.9546L6.50946 32.9355L6.44626 32.91L6.38895 32.8846L6.33199 32.8592L6.2751 32.8337L6.21772 32.8019L6.16723 32.7703L6.11027 32.7385L6.05935 32.7066L6.00878 32.6749L5.95786 32.6366L5.9073 32.5985L5.85666 32.5603L5.81213 32.522L5.76796 32.4838L5.72336 32.4392L5.67918 32.4011L5.63459 32.3565L5.59041 32.3119L5.5522 32.2674L5.51435 32.2164L5.47614 32.1718L5.44433 32.1209L5.40647 32.0699L5.37473 32.0191L5.3432 31.9681L5.31138 31.9108L5.27956 31.8599L5.2545 31.8026L5.229 31.7452L5.20357 31.6879L5.17843 31.6307L5.15933 31.5798L5.13383 31.5224L5.12112 31.4651L5.10237 31.4078L5.08966 31.3442L5.07056 31.2868L5.05784 31.2232L5.05145 31.1659L5.03867 31.1022L5.03242 31.0449L5.02596 30.9812L5.01999 30.9175L5.01367 30.8539V30.7839V30.7202V30.7074V30.6437L5.01999 30.5737V30.5101L5.02596 30.4464L5.03242 30.3764L5.04513 30.3131L5.05145 30.2494L5.06417 30.1921L5.08327 30.1284L5.09605 30.0647L5.11473 30.0074L5.13383 29.9438L5.15294 29.8865L5.17843 29.8228L5.20357 29.7655L5.229 29.7082L5.2545 29.6509L5.27956 29.5936L5.31138 29.5363L5.3432 29.4854L5.37473 29.4344L5.40647 29.3834L5.43836 29.3325L5.47614 29.2816L5.51435 29.2307L5.5522 29.1798L5.59041 29.1351L5.63459 29.0906L5.67279 29.046L5.71704 29.0015L5.76157 28.9568L5.80574 28.9187L5.85666 28.8741L5.90091 28.8359L5.95147 28.7977L6.00239 28.7659L6.05296 28.7277L6.10395 28.6958L6.15444 28.664L6.2114 28.6321L6.26871 28.6003L6.3256 28.5685L6.38255 28.543L6.4398 28.5176L6.50314 28.4857L6.55371 28.4667L6.61699 28.4475L6.67437 28.4221L6.73126 28.4093L6.78814 28.3902L6.85177 28.3775L6.90873 28.3584L6.97201 28.3456L7.03536 28.3393L7.09899 28.3265L7.16234 28.3202L7.22554 28.3138L7.28889 28.3074L7.3526 28.3011H7.42227H7.48554H7.55514H7.62481L7.69491 28.3074L7.76458 28.3138H7.82785L7.89113 28.3202L7.9608 28.3329L8.01811 28.3393L8.08139 28.352L8.14474 28.3648L8.20198 28.3775L8.25886 28.3902L8.31589 28.403L8.3732 28.4221L8.43009 28.4348L8.48066 28.4539L8.53797 28.473L8.59492 28.4984L8.65181 28.5239L8.70912 28.5494L8.76608 28.5812L8.82296 28.6067L8.87396 28.6385L8.93084 28.6703L8.98141 28.7022L9.03872 28.7341L9.08928 28.7722L9.13985 28.8041L9.19077 28.8423L9.24134 28.8805L9.29225 28.925L9.34282 28.9632L9.30461 29.0142L9.26044 29.0587L9.22223 29.1097L9.17806 29.1606L9.13985 29.2116L9.102 29.2561L9.0574 29.307L9.01962 29.3579L8.98141 29.4026L8.93716 29.4535L8.89903 29.5045L8.85478 29.5554L8.81657 29.6L8.77879 29.6509L8.73426 29.7018L8.69634 29.7527L8.65181 29.7973L8.61396 29.8483L8.56304 29.8101L8.51247 29.7655L8.46155 29.7336L8.41099 29.6954L8.36042 29.6636L8.3095 29.6317L8.25886 29.6L8.20198 29.5681L8.15106 29.5427L8.10049 29.5172L8.04957 29.4981L7.99262 29.479L7.93573 29.4599L7.87842 29.4471L7.81514 29.4344L7.75186 29.4217L7.68851 29.4153L7.61884 29.4089L7.54882 29.4026H7.47915H7.41587L7.3526 29.4089L7.29528 29.4153L7.23201 29.428L7.17505 29.4408L7.11774 29.4599L7.06085 29.479L7.0039 29.5045L6.94694 29.5299L6.89602 29.5617L6.84552 29.5936L6.79453 29.6255L6.75036 29.6636L6.70576 29.7018L6.66159 29.74L6.62338 29.7846L6.5792 29.8292L6.541 29.8801L6.50946 29.9247L6.47765 29.9756L6.44626 30.0329L6.41437 30.0838L6.38895 30.1411L6.36984 30.1985L6.3447 30.2558L6.3256 30.3194L6.31288 30.3827L6.30017 30.44L6.28739 30.5101L6.28107 30.5737L6.2751 30.6374V30.7074V30.7202V30.7839L6.28107 30.8475L6.28739 30.9048L6.29378 30.9685L6.30649 31.0258L6.31928 31.0831L6.33199 31.1404L6.35109 31.1977L6.36984 31.2486L6.39534 31.3122L6.42076 31.3696L6.45222 31.4269L6.48404 31.4779L6.51586 31.5288L6.55371 31.5798L6.59192 31.6243L6.63609 31.6689L6.67437 31.7134L6.71847 31.7516L6.76946 31.7898L6.82003 31.828L6.87052 31.8599L6.92144 31.8917L6.97847 31.9172L7.03536 31.9427L7.0926 31.9681L7.15595 31.9872L7.21922 32.0063L7.28293 32.0191L7.34621 32.0318L7.40948 32.0381L7.47915 32.0445H7.54882H7.62481L7.69491 32.0381L7.76458 32.0318L7.82785 32.0254L7.89113 32.0126L7.95483 31.9999L8.01811 31.9809L8.075 31.9681L8.13203 31.9427L8.18294 31.9172L8.23983 31.8917L8.28436 31.8663L8.335 31.8344V31.7707V31.7071V31.6434V31.5798V31.5097V31.446V31.3823V31.3187V31.255H8.27165H8.21441H8.15106H8.08778H8.0245H7.96719H7.90384H7.84057H7.77729H7.72005H7.6567H7.59342H7.53007H7.47283H7.40948V31.1914V31.1341V31.0704V31.0067V30.943V30.8857V30.8221V30.7584V30.6947V30.6374V30.5737V30.5101V30.4464V30.3891V30.3258H7.47283H7.53646H7.59981H7.66302H7.72637H7.78964H7.85335H7.91663H7.9799H8.04325H8.10689H8.17016H8.23344H8.29672H8.36042H8.42377H8.48705H8.55032H8.61396H8.6773H8.74058H8.80386H8.86749H8.93084H8.99412H9.0574H9.1211H9.18438H9.24773H9.311H9.37464H9.43792H9.50126V30.3891V30.4527V30.5164V30.5737V30.6374V30.7011V30.7647V30.8284V30.8921V30.9493V31.013V31.0767V31.1404V31.2041V31.2677V31.3314V31.3887V31.4524V31.5161V31.5798V31.6434V31.7071V31.7707V31.828V31.8917V31.9554V32.0191V32.0827V32.1464V32.2037V32.2674V32.331V32.3947L9.45709 32.4328Z" fill="white"/>
<path d="M7.41834 17.9036H10.1655V15.7786H7.41834V11.4403H10.2749V9.3153H5.08545V24.6519H10.3184V22.5268H7.41834V17.9036Z" fill="white"/>
<path d="M27.0958 18.3643V21.8261C27.0958 22.4396 26.8122 22.7242 26.2238 22.7242H25.7875C25.1771 22.7242 24.8935 22.4396 24.8935 21.8261V12.1418C24.8935 11.5284 25.1771 11.2437 25.7875 11.2437H26.18C26.7687 11.2437 27.0523 11.5284 27.0523 12.1418V15.1437H29.3414V12.0104C29.3414 10.1044 28.4257 9.18418 26.5291 9.18418H25.395C23.4984 9.18418 22.5605 10.1262 22.5605 12.0325V21.9354C22.5605 23.8418 23.4984 24.7837 25.395 24.7837H26.5508C28.4478 24.7837 29.3852 23.8418 29.3852 21.9354V18.3643H27.0958Z" fill="white"/>
<path d="M18.9941 24.6519H21.3274V9.31523H18.9941V24.6519Z" fill="white"/>
<path d="M15.6087 16.129C15.6087 16.7426 15.3256 17.0276 14.7368 17.0276H13.7773V11.3748H14.7368C15.3256 11.3748 15.6087 11.6595 15.6087 12.2729V16.129ZM15.1073 9.31523H11.4443V24.6519H13.7773V19.0867H15.1073C17.0042 19.0867 17.9417 18.1448 17.9417 16.2388V12.1635C17.9417 10.2572 17.0042 9.31523 15.1073 9.31523Z" fill="white"/>
<path fill-rule="evenodd" clip-rule="evenodd" d="M10.5894 38.5196H23.9447L17.1279 40.7676L10.5894 38.5196Z" fill="white"/>
</svg>
