<svg width="106" height="48" viewBox="0 0 106 48" fill="none" xmlns="http://www.w3.org/2000/svg">
<path d="M34.9821 16.6525C33.5457 15.7164 31.852 15.2386 30.1307 15.284H24.1655V33.3754H27.8652V26.8186H29.9324C31.6756 26.8441 33.3865 26.3544 34.8448 25.4125C35.5632 24.9329 36.141 24.2752 36.5199 23.5057C36.899 22.7362 37.0656 21.8819 37.0035 21.0287C37.0035 19.0235 36.3296 17.5648 34.9821 16.6525ZM32.236 23.1266C31.6251 23.6011 30.8617 23.8439 30.0848 23.8109H27.8652V18.3218H30.0315C30.8516 18.2713 31.6632 18.5113 32.3199 18.9985C32.6087 19.2751 32.8319 19.6115 32.973 19.9834C33.114 20.3553 33.1697 20.7534 33.136 21.149C33.1337 21.5222 33.0525 21.8908 32.8975 22.2313C32.7424 22.5719 32.5172 22.8768 32.236 23.1266Z" fill="#39B75D"/>
<path d="M40.7869 22.7506L39.6654 21.0888H37.7891V33.3754H41.4885V25.7358C42.0723 25.2109 42.7464 24.7933 43.4795 24.5026C44.0892 24.2667 44.7389 24.1467 45.3941 24.1492V21.0888C44.4288 21.0489 43.4669 21.2237 42.5794 21.6002C41.9353 21.9079 41.3328 22.2944 40.7869 22.7506Z" fill="#39B75D"/>
<path d="M50.8862 21.1116H47.1865V33.3831H50.8862V21.1116Z" fill="#39B75D"/>
<path d="M49.0249 15.269C48.7563 15.2641 48.4897 15.3151 48.2427 15.4188C47.9955 15.5224 47.7734 15.6764 47.5908 15.8706C47.2094 16.2621 47.0011 16.7866 47.0111 17.3293C46.9978 17.6058 47.0423 17.882 47.1421 18.1407C47.2417 18.3995 47.3945 18.6352 47.5908 18.8332C47.7738 19.0263 47.9961 19.1791 48.2433 19.2815C48.4905 19.3839 48.7568 19.4336 49.0249 19.4272C49.2984 19.4324 49.57 19.3823 49.8232 19.2802C50.0764 19.178 50.3058 19.0259 50.4971 18.8332C50.7018 18.64 50.8623 18.4059 50.9676 18.1465C51.0728 17.887 51.1204 17.6084 51.1072 17.3293C51.1072 16.7822 50.8873 16.2574 50.4956 15.8698C50.1039 15.4822 49.5723 15.2635 49.0172 15.2615L49.0249 15.269Z" fill="#39B75D"/>
<path d="M60.7189 20.6528C59.8881 20.664 59.0672 20.8325 58.3008 21.1491C57.5443 21.4249 56.8441 21.8324 56.2336 22.3522L55.2496 21.089H53.335V33.3755H57.0423V24.8035C57.4632 24.5093 57.9128 24.2574 58.3847 24.0516C58.8085 23.8574 59.2679 23.75 59.7349 23.7358C59.9968 23.7219 60.2587 23.763 60.5032 23.8563C60.7477 23.9497 60.9694 24.0931 61.1537 24.2771C61.5183 24.7136 61.7036 25.2691 61.6723 25.8336V33.353H65.372V25.7133C65.4146 24.4312 65.0405 23.1692 64.3041 22.1116C63.5869 21.1416 62.3971 20.6528 60.7189 20.6528Z" fill="#39B75D"/>
<path d="M81.4443 21.1116H77.7446V33.3831H81.4443V21.1116Z" fill="#39B75D"/>
<path d="M88.8892 21.0891V20.4049C88.8623 19.8872 89.0012 19.3743 89.2859 18.9386C89.4339 18.75 89.6271 18.6004 89.848 18.5033C90.0691 18.4062 90.3109 18.3646 90.5521 18.3822C90.7844 18.3855 91.015 18.4184 91.2386 18.4799C91.4992 18.555 91.7541 18.648 92.0015 18.7581L93.0617 16.1489C92.6948 15.8655 92.275 15.656 91.8259 15.5323C91.3353 15.3635 90.8202 15.2746 90.3003 15.2692C88.9484 15.209 87.622 15.6457 86.5779 16.4948C86.091 16.9271 85.7086 17.4616 85.4591 18.0589C85.2096 18.6563 85.0993 19.3012 85.1363 19.9462V21.0891H83.1987V24.2623H85.1363V33.3756H88.8434V24.2848H92.299L91.2616 21.0891H88.8892Z" fill="#39B75D"/>
<path d="M101.613 21.0891L99.0496 28.3828C98.6148 27.1647 98.1724 25.9541 97.7149 24.736C97.2571 23.5178 96.8147 22.3072 96.3569 21.0891H92.4438L96.6468 31.6838C96.9143 32.3532 96.9143 33.0975 96.6468 33.7666C96.3849 34.3401 95.9255 34.8036 95.3502 35.075C94.7415 35.4071 94.1121 35.7009 93.466 35.9548L94.7475 38.9626C95.8957 38.6728 96.9741 38.1617 97.9207 37.4587C98.8511 36.8177 99.5761 35.9281 100.011 34.8946L105.442 21.0891H101.613Z" fill="#39B75D"/>
<path d="M79.5755 15.2766C79.3038 15.2714 79.0343 15.323 78.7846 15.428C78.5347 15.533 78.3103 15.689 78.126 15.8856C77.9343 16.0763 77.7836 16.3031 77.6828 16.5524C77.5817 16.8017 77.5329 17.0685 77.5387 17.3369C77.5321 17.6054 77.5805 17.8724 77.6815 18.1218C77.7824 18.3713 77.9337 18.598 78.126 18.7881C78.3136 18.9792 78.5391 19.13 78.7885 19.2309C79.038 19.3319 79.3059 19.3808 79.5755 19.3746C79.8566 19.3827 80.1365 19.3349 80.3986 19.2342C80.6607 19.1334 80.8996 18.9817 81.1011 18.7881C81.299 18.6001 81.4563 18.3747 81.564 18.1254C81.6714 17.876 81.7269 17.6078 81.7269 17.3369C81.7269 17.0659 81.6714 16.7978 81.564 16.5484C81.4563 16.299 81.299 16.0736 81.1011 15.8856C80.9029 15.6862 80.6651 15.5291 80.4025 15.4244C80.14 15.3196 79.8585 15.2693 79.5755 15.2766Z" fill="#39B75D"/>
<path d="M74.4721 30.1123C74.2458 30.1733 74.0125 30.2061 73.7779 30.21C73.5376 30.2282 73.2966 30.187 73.0767 30.0898C72.8569 29.9925 72.6652 29.8425 72.5192 29.6535C72.2318 29.2187 72.0904 28.7057 72.1151 28.1873V24.4276H75.4332L74.3653 21.2695H72.1151V17.3293H68.4154V21.089H66.478V24.2622H68.4154V28.676C68.3775 29.3204 68.4866 29.9649 68.7347 30.5623C68.9829 31.1596 69.3638 31.6945 69.8495 32.1274C70.8934 32.9766 72.22 33.4133 73.572 33.3531C74.0914 33.3461 74.6065 33.2574 75.0976 33.0898C75.5435 32.9645 75.9607 32.7551 76.3257 32.4733L75.2729 29.8414C75.0125 29.9496 74.745 30.04 74.4721 30.1123Z" fill="#39B75D"/>
<path d="M4.88943 18.6752C5.08015 17.6601 5.20982 17.0435 5.27847 16.7277C5.69802 14.5846 5.27847 13.1184 4.18766 12.9229C3.60031 12.8176 3.20366 13.171 2.94431 14.1636C2.39508 16.2239 0.762695 22.3972 0.762695 22.3972L2.71546 19.8106C2.97007 19.4746 3.29712 19.1985 3.67306 19.0021C4.04899 18.8058 4.46444 18.6941 4.88943 18.6752Z" fill="#39B75D"/>
<path d="M3.49388 21.5778C3.70066 21.3035 3.96995 21.0811 4.28 20.9282C4.59005 20.7754 4.93219 20.6966 5.27884 20.698C5.67678 20.6963 6.06748 20.803 6.40778 21.0063C6.47643 21.0063 7.93337 22.0891 8.81061 22.7358H10.4888C11.5213 22.7346 12.5395 22.4978 13.4637 22.044C13.8745 21.8235 14.2132 21.4923 14.4401 21.089C14.5461 20.8522 14.5649 20.5862 14.4935 20.3371C14.4578 20.2378 14.4013 20.147 14.3277 20.0705C14.2541 19.9941 14.1651 19.9338 14.0663 19.8935C13.8267 19.7883 13.5656 19.7393 13.3035 19.7506H4.91268C4.64456 19.7586 4.38173 19.8264 4.14396 19.9488C3.90616 20.0712 3.69956 20.2451 3.53965 20.4574L0.168073 24.9765C0.115646 25.0718 0.0746861 25.1727 0.0460251 25.2773C0.0164099 25.4062 0.01469 25.5398 0.0409772 25.6693C0.0672646 25.7989 0.120969 25.9215 0.198585 26.0292L3.49388 21.5778Z" fill="#39B75D"/>
<path d="M3.00575 25.0969C3.17835 24.866 3.39544 24.671 3.64461 24.523C3.89375 24.375 4.17007 24.2769 4.45772 24.2343C4.74539 24.1917 5.03876 24.2055 5.32104 24.2747C5.60331 24.344 5.86893 24.4676 6.10273 24.6382L8.90221 26.6684C9.25035 26.9049 9.5398 27.216 9.74892 27.5782C9.84648 27.7567 9.91347 27.9498 9.94724 28.1497C10.2186 28.237 10.4966 28.3023 10.7787 28.3452C11.2338 28.4131 11.6991 28.3532 12.1212 28.1723C12.3764 28.0405 12.5703 27.817 12.6628 27.5482C12.6931 27.4482 12.702 27.3431 12.6889 27.2395C12.6758 27.1359 12.6409 27.0362 12.5865 26.9466C12.4533 26.7219 12.2709 26.5292 12.0526 26.3827L5.95017 21.9688L5.84338 21.9011C5.66579 21.7968 5.46273 21.7423 5.25601 21.7433C5.10142 21.7414 4.94806 21.7704 4.80514 21.8285C4.66225 21.8867 4.53277 21.9728 4.42458 22.0816L4.32541 22.2019L0.137631 27.8565C0.0423912 28.0128 -0.00339761 28.1936 0.00611341 28.3758C0.0156244 28.5579 0.0800034 28.7332 0.191027 28.8791L3.00575 25.0969Z" fill="#39B75D"/>
<path d="M8.39082 18.6753H11.9607C11.8865 18.5126 11.8025 18.3544 11.709 18.2016C11.3202 17.552 10.8313 16.966 10.2597 16.4646C10.0165 16.2163 9.70284 16.0461 9.35985 15.9763C9.01688 15.9065 8.66052 15.9405 8.33743 16.0736C8.07607 16.2325 7.88819 16.486 7.81405 16.7797C7.73992 17.0734 7.7854 17.3841 7.94078 17.6452L8.39082 18.6753Z" fill="#39B75D"/>
<path d="M13.8296 23.0291C13.5855 23.1494 13.3337 23.2471 13.0668 23.3373C12.3974 23.5688 11.6996 23.7104 10.992 23.7584C10.58 23.7584 10.2291 23.7584 10.2291 23.7584L11.7548 24.8788L12.6472 25.5255C12.994 25.7666 13.283 26.0798 13.4939 26.4428C13.6173 26.6552 13.6951 26.8901 13.7226 27.1333C13.7502 27.3764 13.7269 27.6225 13.6541 27.8565C13.4762 28.3879 13.0923 28.8285 12.5862 29.0821C11.8823 29.3915 11.0964 29.4705 10.3436 29.3077L9.80198 29.1949C9.59559 29.6284 9.24966 29.9827 8.81798 30.2025C8.21144 30.4907 7.53198 30.5952 6.8652 30.5033C6.19731 30.3974 5.54773 30.2001 4.93531 29.9168C4.86786 29.8846 4.80803 29.8388 4.75969 29.7825C4.71133 29.7262 4.67557 29.6603 4.6547 29.5895C4.63384 29.5184 4.62835 29.444 4.63858 29.3709C4.64882 29.2977 4.67456 29.2275 4.7141 29.1648C4.77952 29.0662 4.87753 28.9928 4.9915 28.9572C5.10549 28.9216 5.22845 28.9258 5.3396 28.9693C5.8577 29.2155 6.41064 29.3828 6.97962 29.4656C7.43472 29.5335 7.90002 29.4735 8.32216 29.2926C8.57492 29.1637 8.76655 28.9424 8.85611 28.6761C8.88756 28.575 8.89702 28.4685 8.88388 28.3635C8.87073 28.2586 8.83529 28.1575 8.77982 28.067C8.68386 27.8977 8.55412 27.7494 8.39843 27.6309L5.46927 25.4804C5.24209 25.314 4.96041 25.2364 4.67864 25.2628C4.39687 25.2892 4.13501 25.4176 3.94368 25.6232L3.86741 25.7059L0.205956 30.6084C0.0726553 30.7872 0.000523091 31.0033 0 31.2252C0.00305413 31.3682 0.0365427 31.5091 0.0982997 31.6386C0.160057 31.768 0.248707 31.8833 0.358516 31.977C2.02334 33.3068 3.77103 34.5323 5.59133 35.6464C5.72864 35.7368 6.14055 35.9623 6.17106 35.9848C7.21982 36.5321 8.39458 36.8019 9.5807 36.768C10.7668 36.7344 11.9238 36.398 12.9388 35.7921C13.9538 35.1862 14.7922 34.3313 15.372 33.3109C15.952 32.2903 16.2536 31.1391 16.2476 29.9695C16.2438 29.0053 16.0359 28.0526 15.6374 27.1722C15.4314 26.7436 13.8372 23.0291 13.8296 23.0291Z" fill="#39B75D"/>
<path d="M8.82555 9.80994C8.73737 9.8138 8.65083 9.83477 8.57088 9.87164C8.49092 9.90851 8.41914 9.96057 8.35962 10.0248C8.3001 10.0891 8.25404 10.1643 8.22404 10.2461C8.19404 10.3279 8.18071 10.4148 8.18481 10.5017C8.18481 11.1183 8.26872 12.3515 8.29159 12.9681C8.30076 13.106 8.36097 13.2358 8.46082 13.3328C8.56065 13.4298 8.69317 13.4873 8.83319 13.4944C8.98167 13.5006 9.12661 13.4487 9.23657 13.3502C9.34654 13.2516 9.41265 13.1143 9.42054 12.9681C9.42054 12.3515 9.53496 11.0582 9.52734 10.4416C9.52442 10.3543 9.50384 10.2685 9.46677 10.1892C9.42971 10.1099 9.37691 10.0388 9.31153 9.97991C9.24613 9.92105 9.16943 9.87569 9.08597 9.8465C9.00252 9.8173 8.91397 9.80488 8.82555 9.80994Z" fill="#39B75D"/>
<path d="M14.4931 11.5545C14.342 11.461 14.1597 11.43 13.9856 11.468C13.8114 11.5059 13.6595 11.61 13.5625 11.7575L12.2047 13.8329C12.126 13.9537 12.0977 14.0998 12.1258 14.2406C12.1539 14.3815 12.2361 14.5063 12.3552 14.5888C12.4744 14.6713 12.6213 14.7052 12.7653 14.6835C12.9092 14.6617 13.0391 14.5859 13.1277 14.472C13.5091 13.9832 14.3253 12.9681 14.6533 12.4643C14.7042 12.3945 14.7405 12.3154 14.76 12.2316C14.7795 12.1478 14.7819 12.061 14.767 11.9763C14.7521 11.8915 14.7202 11.8106 14.6732 11.7382C14.6261 11.6658 14.5649 11.6033 14.4931 11.5545Z" fill="#39B75D"/>
<path d="M18.1167 16.1789C18.0461 16.0189 17.9148 15.8924 17.751 15.8263C17.5871 15.7603 17.4036 15.76 17.2395 15.8255L14.9511 16.7729C14.8203 16.8266 14.7148 16.9267 14.6555 17.0535C14.5961 17.1802 14.5873 17.3243 14.6307 17.4572C14.6524 17.5265 14.6878 17.5909 14.735 17.6467C14.7821 17.7024 14.8399 17.7484 14.9052 17.782C14.9705 17.8155 15.0418 17.836 15.1151 17.8422C15.1885 17.8484 15.2623 17.8402 15.3325 17.8181C15.9275 17.6301 17.1861 17.2692 17.7734 17.0662C17.8574 17.0329 17.9334 16.9829 17.9969 16.9193C18.0603 16.8557 18.1096 16.7799 18.1419 16.6965C18.1741 16.6132 18.1885 16.5242 18.1842 16.4351C18.1798 16.346 18.1569 16.2588 18.1167 16.1789Z" fill="#39B75D"/>
</svg>
