<svg width="71" height="48" viewBox="0 0 71 48" fill="none" xmlns="http://www.w3.org/2000/svg">
<path d="M4.31384 20.0955C5.56462 19.4866 6.94917 19.1976 8.34147 19.2548C11.0346 19.347 12.5139 20.7004 12.5726 23.3557C12.6381 26.1375 12.6174 28.8953 12.607 31.6736C12.607 32.8049 12.307 33.0645 11.1794 33.0645H9.6173C8.6207 33.0645 8.31037 32.7638 8.28967 31.7694V24.3229C8.28967 23.1712 7.74136 22.6961 6.56556 22.744C6.36084 22.7475 6.15683 22.7668 5.95513 22.8021C4.4138 23.1131 4.32408 23.2224 4.32408 24.7807V31.4173C4.32408 32.8356 4.07927 33.0747 2.6689 33.0747H1.10694C0.372443 33.0747 0.0483098 32.7331 0 31.9813V14.4464C0 13.1649 0.275901 12.895 1.54832 12.895H2.92759C3.99661 12.895 4.32416 13.1923 4.34494 14.2619C4.37595 15.8647 4.34494 17.4674 4.34494 19.0668C4.31384 19.3608 4.31384 19.6786 4.31384 20.0955Z" fill="black"/>
<path d="M27.3348 26.5922C27.2416 27.3303 27.1864 28.2768 26.9898 29.1996C26.6789 31.2784 25.0506 32.9213 22.9587 33.2664C21.5292 33.5707 20.0489 33.5521 18.6277 33.2116C16.8268 32.8677 15.3919 31.5176 14.9518 29.7532C14.3006 27.5275 14.3006 25.1646 14.9518 22.9389C15.6415 20.6014 17.4448 19.3472 20.0864 19.2582C21.0394 19.2079 21.995 19.2663 22.9346 19.4325C25.4277 19.9281 26.8415 21.6026 27.1623 24.3365C27.2416 25.0304 27.2657 25.7002 27.3348 26.5922ZM22.9829 26.6469C22.9346 25.8847 22.9071 25.3652 22.8587 24.8526C22.8285 24.5838 22.7729 24.3186 22.6932 24.0597C22.535 23.1974 21.7439 22.5937 20.8623 22.6621C20.0023 22.5976 19.2324 23.188 19.0794 24.029C18.6883 25.5655 18.6883 27.1743 19.0794 28.7109C19.2403 29.5664 20.0415 30.1531 20.9139 30.0539C21.7404 30.1104 22.4799 29.5476 22.638 28.7418C22.791 28.0489 22.9061 27.3484 22.9829 26.6434V26.6469Z" fill="black"/>
<path d="M54.9179 24.5212C55.1076 23.0927 54.7868 22.6519 53.3973 22.7168C52.2647 22.8115 51.1395 22.977 50.0282 23.2122C49.0868 23.3798 48.3972 23.1439 48.2662 22.4195C48.0523 21.2235 48.1351 20.1982 49.104 19.9112C51.3426 19.1813 53.7381 19.0632 56.0386 19.5694C58.1283 20.0648 59.142 21.4352 59.142 23.6703V31.5849C59.142 32.183 59.142 32.7982 58.4249 33.0305C57.6263 33.3191 56.731 33.075 56.1938 32.4222L55.9731 32.1044C54.7502 33.074 53.2089 33.5609 51.6454 33.4714C48.2489 33.3484 46.297 30.1394 47.7729 27.0877C48.4626 25.6354 49.842 25.1773 51.2663 24.9519C52.4937 24.7706 53.711 24.6578 54.9179 24.5212ZM54.9835 26.8518C54.1593 26.9748 53.4352 27.0431 52.7318 27.1936C51.9981 27.288 51.4442 27.8993 51.4282 28.6323C51.2732 29.3688 51.6663 30.1109 52.3662 30.4025C53.0558 30.6691 54.5213 30.4025 54.8593 29.9378C54.9242 29.8478 54.9602 29.7406 54.9626 29.6302C54.9835 28.7314 54.9835 27.8359 54.9835 26.8416V26.8518Z" fill="black"/>
<path d="M30.2902 19.7334V17.9666C30.2274 17.4251 30.5803 16.9216 31.1144 16.791C31.8175 16.5574 32.5323 16.3589 33.2557 16.1963C33.778 16.0244 34.3421 16.3048 34.5157 16.8224C34.562 16.9607 34.5769 17.1076 34.5593 17.2523C34.5834 18.0144 34.5593 18.7697 34.5593 19.6172H36.6041C37.6007 19.6412 37.942 19.9588 37.9835 20.9841C38.0387 23.0619 37.9249 23.1782 35.8525 23.1782H34.6489C34.6168 23.3636 34.5949 23.5508 34.5834 23.7385V28.1232C34.5834 29.4902 34.9972 29.9071 36.3386 30.0027C37.5145 30.0882 37.8353 30.3446 37.8353 31.2946C37.8766 32.8084 37.5661 33.3211 36.3386 33.3929C35.3649 33.4655 34.3859 33.4162 33.4247 33.246C31.4282 32.8461 30.3523 31.561 30.2867 29.4697C30.2281 27.6448 30.2626 25.8164 30.2558 24.0018V23.1815H29.0489C28.4807 23.2268 27.9827 22.8081 27.9351 22.2452C27.9351 22.2132 27.9351 22.1826 27.9351 22.1529C27.7695 20.7552 28.0213 20.3827 29.3627 20.0067L30.2902 19.7334Z" fill="black"/>
<path d="M45.2867 28.2326C45.2867 30.6006 45.3316 32.9689 45.2867 35.3371C45.2751 38.0682 43.0316 40.2729 40.276 40.2612C40.0139 40.2601 39.7522 40.2386 39.4935 40.1967C38.5315 40.0772 38.19 39.7013 38.1763 38.7136V37.8352C38.2177 37.0083 38.4764 36.7212 39.3039 36.5708C40.5797 36.3352 40.9971 35.8599 41.0004 34.5376V21.0695C41.0004 19.928 41.2937 19.6239 42.4489 19.5864H44.0177C44.9454 19.6273 45.2936 19.9623 45.3004 20.8882V28.1879L45.2867 28.2326Z" fill="black"/>
<path d="M64.5487 20.5535C65.6784 19.7503 67.0244 19.2992 68.4143 19.2583C69.7936 19.2583 70.1109 19.5454 70.1074 20.8987V21.5071C70.1074 22.382 69.742 22.6929 68.8798 22.7818C68.0683 22.8799 67.2627 23.0202 66.466 23.2021C65.9316 23.315 65.7281 23.6362 65.7385 24.2274C65.7797 26.6981 65.7385 29.1484 65.7385 31.6056C65.7385 32.8119 65.4728 33.0648 64.2418 33.0887H62.466C61.9554 33.1301 61.5077 32.7535 61.466 32.2473C61.461 32.1862 61.462 32.1246 61.4694 32.0637V20.6971C61.4299 20.1909 61.812 19.7488 62.3227 19.7096C62.3234 19.7094 62.324 19.7094 62.3246 19.7094H62.3659C63.2246 19.5659 64.1279 19.4327 64.5487 20.5535Z" fill="black"/>
<path d="M44.8246 17.1806C45.604 14.4056 45.3247 13.0079 43.9556 12.7379C44.1659 13.6811 44.4004 14.6483 43.4005 15.3009C42.8762 15.6427 42.4625 15.5128 41.5349 14.8054C41.1072 15.6769 41.2522 16.5449 41.4486 17.4744C40.1177 17.2454 39.0693 16.6986 38.5832 15.424C38.0817 14.2659 38.3564 12.9211 39.2728 12.0475C39.593 11.7254 39.9391 11.4294 40.3073 11.1624C41.804 10.0483 42.0935 8.96841 41.3039 7.29387C41.2686 7.19796 41.2398 7.09983 41.2178 7C42.8818 7.2506 44.4555 7.91227 45.7936 8.92407C48.711 11.2889 48.3594 15.5367 45.1385 17.0986C45.0295 17.1069 44.9232 17.1346 44.8246 17.1806Z" fill="#EE4854"/>
</svg>
