<svg width="113" height="48" viewBox="0 0 113 48" fill="none" xmlns="http://www.w3.org/2000/svg">
<path fill-rule="evenodd" clip-rule="evenodd" d="M44.5134 18.1055H39.5391V29.4335H41.5193V25.187H44.5145C46.8669 25.187 48.1867 23.5746 48.1867 21.6529C48.1867 19.7168 46.8835 18.1033 44.5145 18.1033L44.5134 18.1055ZM44.2428 23.4398H41.5171V19.856H44.2417C45.3571 19.856 46.1523 20.5694 46.1523 21.6562C46.1523 22.7275 45.3571 23.4398 44.2417 23.4398H44.2428ZM52.3978 21.0278C51.0946 21.0278 49.9107 21.4364 48.9741 22.3531L49.7185 23.5933C50.4121 22.8799 51.2249 22.5408 52.1372 22.5408C53.2527 22.5408 54.0478 23.1184 54.0478 24.0694V25.2919C53.4382 24.5962 52.5083 24.2394 51.3917 24.2394C50.0664 24.2394 48.5644 25.0203 48.5644 26.9232C48.5644 28.7234 50.0708 29.64 51.3917 29.64C52.474 29.64 53.4393 29.2491 54.0478 28.5356V29.4357H55.826V23.981C55.826 21.7898 54.2356 21.0256 52.4078 21.0256L52.3978 21.0278ZM54.039 27.5659C53.616 28.1259 52.8551 28.4164 52.093 28.4164C51.0946 28.4164 50.3337 27.8387 50.3337 26.9386C50.3337 26.0551 51.0957 25.4609 52.093 25.4609C52.8551 25.4609 53.6171 25.7481 54.039 26.3113V27.5659ZM62.363 21.0278C61.0775 21.0278 60.0106 21.6904 59.4694 22.3354V21.231H57.6913V29.4346H59.4694V23.6938C59.8924 23.1505 60.671 22.6071 61.5678 22.6071C62.5662 22.6071 63.2245 23.0157 63.2245 24.3057V29.4346H65.0026V23.6585C65.0026 21.9776 64.1224 21.0256 62.352 21.0256L62.363 21.0278ZM72.6341 22.3696C72.3375 21.951 71.9441 21.6104 71.4874 21.3767C71.0306 21.143 70.5241 21.0233 70.0111 21.0278C67.9127 21.0278 66.3886 22.6756 66.3886 25.324C66.3886 28.0408 67.9282 29.6378 70.0111 29.6378C71.0769 29.6378 72.0079 29.1298 72.6341 28.3125V29.4335H74.4122V18.1055H72.6341V22.3696ZM72.6341 26.9552C72.2454 27.5671 71.364 28.0596 70.5357 28.0596C69.1143 28.0596 68.2164 26.9221 68.2164 25.3251C68.2164 23.7458 69.1132 22.6082 70.5357 22.6082C71.364 22.6082 72.2443 23.1008 72.6341 23.7126V26.9552ZM79.6549 21.0278C78.3517 21.0278 77.1678 21.4364 76.2312 22.3531L76.9756 23.5933C77.6692 22.8799 78.482 22.5408 79.3943 22.5408C80.5098 22.5408 81.3049 23.1184 81.3049 24.0694V25.2919C80.6953 24.5962 79.7654 24.2394 78.6488 24.2394C77.3235 24.2394 75.8215 25.0203 75.8215 26.9232C75.8215 28.7234 77.3279 29.64 78.6488 29.64C79.7311 29.64 80.6964 29.2491 81.3049 28.5356V29.4357H83.0831V23.981C83.0831 21.7898 81.4927 21.0256 79.6649 21.0256L79.6549 21.0278ZM81.2961 27.5659C80.8731 28.1259 80.1122 28.4164 79.3501 28.4164C78.3517 28.4164 77.5908 27.8387 77.5908 26.9386C77.5908 26.0551 78.3528 25.4609 79.3501 25.4609C80.1122 25.4609 80.8742 25.7481 81.2961 26.3113V27.5659ZM89.1971 18.1055H85.0003V29.4335H89.2137C92.7335 29.4335 95.1025 27.1065 95.1025 23.7612C95.1025 20.448 92.7335 18.1066 89.1971 18.1066V18.1055ZM89.1971 27.6841H86.9806V19.8538H89.2137C91.7174 19.8538 93.0714 21.5877 93.0714 23.7601C93.0714 25.917 91.65 27.683 89.1971 27.683V27.6841ZM100.245 21.0267C97.6382 21.0267 96.0478 22.9627 96.0478 25.3229C96.0478 27.6664 97.6382 29.6367 100.245 29.6367C102.851 29.6367 104.441 27.6664 104.441 25.3229C104.441 22.9616 102.851 21.0267 100.245 21.0267ZM100.245 28.0585C98.7382 28.0585 97.8922 26.7851 97.8922 25.324C97.8922 23.8805 98.7382 22.6071 100.245 22.6071C101.769 22.6071 102.597 23.8805 102.597 25.324C102.597 26.7851 101.769 28.0585 100.245 28.0585ZM109.634 28.0585C108.162 28.0585 107.164 26.921 107.164 25.324C107.164 23.727 108.162 22.6071 109.634 22.6071C110.43 22.6071 111.056 22.913 111.512 23.5569L112.679 22.4856C112.105 21.7048 111.155 21.0245 109.549 21.0245C107.079 21.0245 105.336 22.8412 105.336 25.3207C105.336 27.8001 107.079 29.6345 109.549 29.6345C111.156 29.6345 112.104 28.9387 112.679 28.1734L111.512 27.069C111.055 27.7139 110.43 28.0541 109.634 28.0541V28.0585Z" fill="black"/>
<path fill-rule="evenodd" clip-rule="evenodd" d="M30.8089 8H0.929925C0.807724 7.99971 0.68667 8.02357 0.573715 8.07019C0.46076 8.11682 0.35813 8.18531 0.271721 8.27172C0.185312 8.35813 0.116826 8.46076 0.0701959 8.57372C0.0235661 8.68667 -0.000288666 8.80772 2.63604e-06 8.92992V38.8111C-0.000288666 38.9333 0.0235661 39.0544 0.0701959 39.1673C0.116826 39.2803 0.185312 39.3829 0.271721 39.4693C0.35813 39.5557 0.46076 39.6242 0.573715 39.6709C0.68667 39.7175 0.807724 39.7413 0.929925 39.7411H30.8111C30.9333 39.7413 31.0544 39.7175 31.1673 39.6709C31.2803 39.6242 31.3829 39.5557 31.4693 39.4693C31.5557 39.3829 31.6242 39.2803 31.6709 39.1673C31.7175 39.0544 31.7413 38.9333 31.7411 38.8111V8.92992C31.7413 8.80772 31.7175 8.68667 31.6709 8.57372C31.6242 8.46076 31.5557 8.35813 31.4693 8.27172C31.3829 8.18531 31.2803 8.11682 31.1673 8.07019C31.0544 8.02357 30.9333 7.99971 30.8111 8H30.8089Z" fill="#55B76F"/>
<path d="M23.8644 13.6404V19.5314C22.8789 18.7471 21.6561 18.3211 20.3965 18.3231C18.5433 18.3231 16.9011 19.2288 15.8861 20.6181C15.1891 21.5717 14.8143 22.7226 14.8159 23.9038C14.8098 24.8216 14.4412 25.6999 13.7904 26.3472C13.1396 26.9945 12.2593 27.3583 11.3414 27.3595C10.424 27.3595 9.54389 26.996 8.89391 26.3485C8.24394 25.701 7.87703 24.8223 7.87352 23.9049V23.8784C7.87678 23.1125 8.1335 22.3692 8.60361 21.7645C9.07372 21.1599 9.73077 20.7279 10.4722 20.5359C11.2137 20.344 11.9978 20.4029 12.7023 20.7034C13.4068 21.004 13.9919 21.5293 14.3664 22.1974C14.4371 21.9589 14.6005 21.4464 14.8303 20.998C15.0291 20.6071 15.2875 20.2691 15.4289 20.0957C14.9072 19.5326 14.2747 19.0834 13.5711 18.7764C12.8675 18.4695 12.108 18.3114 11.3403 18.3121C8.29431 18.3121 5.8182 20.7529 5.76077 23.7845H5.75635V34.155H7.87242V28.264C8.85799 29.0482 10.0808 29.4743 11.3403 29.4722C13.2012 29.4722 14.8501 28.5611 15.8629 27.1607C16.5256 26.2496 16.9121 25.1286 16.9121 23.9137C16.9121 23.9049 16.9176 23.9159 16.9276 23.9424L16.9265 23.9038C16.9246 22.984 17.2881 22.1012 17.9371 21.4495C18.5861 20.7978 19.4674 20.4306 20.3872 20.4287C21.3069 20.4268 22.1897 20.7903 22.8414 21.4393C23.4931 22.0884 23.8603 22.9697 23.8622 23.8894V23.9181C23.8587 24.6841 23.6016 25.4273 23.1312 26.0319C22.6607 26.6364 22.0034 27.0681 21.2618 27.2597C20.5201 27.4513 19.7359 27.3919 19.0316 27.0909C18.3272 26.7899 17.7423 26.2642 17.3682 25.5957C17.302 25.8221 17.1341 26.3534 16.8966 26.8194C16.7034 27.1994 16.4549 27.5285 16.3113 27.7052C16.8329 28.2668 17.465 28.7146 18.1677 29.0206C18.8705 29.3266 19.6289 29.4841 20.3954 29.4833C23.4414 29.4833 25.9175 27.0425 25.9728 24.012H25.9772V13.6415L23.8644 13.6404Z" fill="white"/>
</svg>
