<svg width="74" height="48" viewBox="0 0 74 48" fill="none" xmlns="http://www.w3.org/2000/svg">
<path d="M38.4183 7.77494C37.9287 7.96409 37.799 8.15996 37.794 8.53657V29.1308C37.804 29.5275 38.107 29.8589 38.4945 29.8974C38.5112 29.8982 56.3629 29.9075 56.48 29.9075C60.0638 29.9075 62.9679 27.0033 62.9679 23.4188C62.9679 19.8342 60.0638 16.9309 56.48 16.9309C55.6186 16.9305 54.7656 17.1015 53.9709 17.4339C53.4545 11.5872 48.5519 6.99998 42.5695 6.99998C41.1502 7.00221 39.7432 7.26546 38.4191 7.77663L38.4183 7.77494ZM35.7544 9.23287L35.4615 23.8489L35.7544 29.1534C35.7644 29.5409 36.0808 29.8598 36.4691 29.8598C36.6577 29.8582 36.8381 29.7827 36.9716 29.6496C37.1052 29.5164 37.1811 29.3361 37.183 29.1475V29.1526L37.5011 23.8481L37.183 9.23037C37.173 8.83952 36.8566 8.519 36.4691 8.519C36.0816 8.519 35.7577 8.84035 35.7544 9.23287ZM33.5842 10.4464L33.3332 23.8431C33.3332 23.8515 33.5842 29.2296 33.5842 29.2296C33.5942 29.5936 33.8906 29.8933 34.2538 29.8933C34.4303 29.8913 34.599 29.8206 34.7241 29.6962C34.8493 29.5718 34.9211 29.4035 34.9242 29.2271V29.2304V29.2271L35.2062 23.8481L34.9242 10.4456C34.9141 10.079 34.617 9.78021 34.2546 9.78021C34.0783 9.78237 33.9097 9.85317 33.7847 9.97754C33.6597 10.1019 33.5882 10.2701 33.5851 10.4464H33.5842ZM27.0956 11.8508L26.7633 23.8439L27.0964 29.3509C27.1048 29.6455 27.3474 29.8782 27.6303 29.8782C27.9132 29.8782 28.1551 29.6439 28.1643 29.3484V29.3459L28.5384 23.8431L28.1643 11.85C28.1543 11.5512 27.9199 11.3185 27.6303 11.3185C27.3407 11.3185 27.1031 11.5512 27.0947 11.85L27.0956 11.8508ZM29.2406 12.1571L28.9359 23.8448L29.2414 29.2973C29.2515 29.6179 29.5025 29.8715 29.8214 29.8715C30.1403 29.8715 30.3905 29.6171 30.4006 29.294V29.2973L30.7354 23.8439L30.4006 12.1562C30.3905 11.8323 30.1378 11.5788 29.8214 11.5788C29.505 11.5788 29.2481 11.8332 29.2406 12.1562V12.1571ZM24.9664 12.24L24.6065 23.8423L24.9664 29.3827C24.9692 29.5111 25.0219 29.6333 25.1133 29.7234C25.2047 29.8136 25.3277 29.8646 25.456 29.8656C25.7197 29.8656 25.9347 29.6539 25.9456 29.3802L26.3507 23.8423L25.9456 12.2391C25.9347 11.9671 25.7197 11.7537 25.456 11.7537C25.3272 11.7548 25.2039 11.8061 25.1125 11.8968C25.021 11.9875 24.9685 12.1103 24.9664 12.2391V12.24ZM31.404 12.5839L31.1245 23.8439L31.404 29.263C31.4141 29.6087 31.6861 29.8807 32.0293 29.8807C32.3724 29.8807 32.6452 29.6087 32.6528 29.2597V29.2639L32.9657 23.8448L32.6528 12.5831C32.6512 12.4183 32.585 12.2608 32.4684 12.1445C32.3517 12.0282 32.194 11.9624 32.0293 11.9613C31.6945 11.9613 31.4099 12.235 31.404 12.5839ZM22.854 13.1313C22.854 13.1321 22.469 23.8398 22.469 23.8398L22.854 29.4371C22.8575 29.5533 22.9055 29.6638 22.9883 29.7455C23.071 29.8272 23.1822 29.8738 23.2984 29.8756C23.5353 29.8756 23.7302 29.6832 23.7419 29.4354L24.1772 23.8398L23.7419 13.1313C23.7294 12.8844 23.5345 12.6911 23.2984 12.6911C23.1819 12.693 23.0706 12.7398 22.9878 12.8218C22.9049 12.9039 22.857 13.0148 22.854 13.1313ZM20.7592 15.1232L20.3465 23.8398L20.7592 29.4723C20.77 29.6924 20.945 29.8656 21.1584 29.8656C21.2627 29.8632 21.3622 29.821 21.4365 29.7477C21.5108 29.6745 21.5544 29.5757 21.5584 29.4714V29.4731L22.0255 23.8406L21.5584 15.124C21.545 14.9031 21.3693 14.729 21.1584 14.729C20.9475 14.729 20.77 14.9031 20.7592 15.124V15.1232ZM16.6197 18.0633L16.1544 23.8381L16.6197 29.4245C16.6331 29.5978 16.7654 29.7275 16.9294 29.7275C17.0935 29.7275 17.224 29.5978 17.2391 29.4245L17.7664 23.8381L17.2391 18.0616C17.224 17.89 17.0918 17.7587 16.9294 17.7587C16.7671 17.7587 16.6322 17.89 16.6197 18.0641V18.0633ZM14.5751 18.2164C14.5751 18.2173 14.0813 23.8373 14.0813 23.8373L14.5751 29.2521C14.5901 29.4028 14.7006 29.5033 14.8396 29.5033C14.9785 29.5033 15.0874 29.3945 15.1033 29.2438L15.6623 23.8289L15.1041 18.2081C15.0873 18.0574 14.976 17.9486 14.8396 17.9486C14.7032 17.9486 14.5885 18.0574 14.5751 18.2081V18.2164ZM18.681 18.4734L18.2426 23.8297L18.681 29.4622C18.6944 29.6606 18.8452 29.812 19.0351 29.812C19.2251 29.812 19.3749 29.6614 19.3891 29.4631L19.8871 23.8306L19.3891 18.4709C19.3741 18.2742 19.2235 18.1244 19.0351 18.1244C18.8468 18.1244 18.6936 18.2734 18.681 18.4734ZM12.548 19.0927C12.548 19.0935 12.0292 23.8297 12.0292 23.8297L12.548 28.4629C12.5631 28.5868 12.6569 28.6755 12.7682 28.6755C12.8795 28.6755 12.9691 28.5885 12.9858 28.4638L13.575 23.8297L12.9858 19.0927C12.9666 18.9672 12.877 18.8801 12.7666 18.8801C12.6561 18.8801 12.5615 18.9697 12.5464 19.0927H12.548ZM10.6048 20.9004L10.2197 23.8297L10.6048 26.7087C10.6198 26.8301 10.7068 26.9154 10.8165 26.9154C10.9261 26.9154 11.009 26.8301 11.0257 26.7096L11.4827 23.8289L11.0257 20.8996C11.009 20.7791 10.9219 20.6946 10.8165 20.6946C10.711 20.6946 10.619 20.7799 10.6048 20.9004Z" fill="url(#paint0_linear)"/>
<path d="M51.0919 36.705C51.0919 38.9948 52.3053 40.5833 54.3592 40.5833C56.413 40.5833 57.6257 38.9931 57.6257 36.705C57.6257 34.4168 56.4105 32.825 54.3592 32.825C52.3078 32.825 51.0919 34.4151 51.0919 36.705ZM52.6401 36.705C52.6401 35.3609 53.1449 34.3181 54.3601 34.3181C55.5753 34.3181 56.0783 35.3609 56.0783 36.705C56.0783 38.0491 55.5719 39.0902 54.3601 39.0902C53.1482 39.0902 52.6401 38.0491 52.6401 36.705ZM38.4769 36.705C38.4769 39.0793 39.7975 40.5833 41.7643 40.5833C43.131 40.5833 44.0324 39.9497 44.5488 38.8843L43.2808 38.1311C42.8833 38.7973 42.484 39.0877 41.8078 39.0877C40.678 39.0877 40.021 38.0558 40.021 36.7025C40.021 35.3048 40.6687 34.3155 41.7952 34.3155C42.4706 34.3155 42.9017 34.6168 43.1712 35.1315L44.5688 34.4871C44.0943 33.5079 43.234 32.8132 41.8154 32.8132C39.8486 32.8132 38.4735 34.4034 38.4735 36.6933L38.4769 36.705ZM7.02683 36.6933C7.02683 38.9831 8.24032 40.5716 10.2941 40.5716C12.348 40.5716 13.5607 38.9814 13.5607 36.6933C13.5607 34.4051 12.3454 32.8132 10.2941 32.8132C8.24283 32.8132 7.02683 34.4034 7.02683 36.6933ZM8.57513 36.6933C8.57513 35.3492 9.07984 34.3063 10.2951 34.3063C11.5103 34.3063 12.0149 35.3492 12.0149 36.6933C12.0149 38.0374 11.5103 39.0785 10.2951 39.0785C9.07984 39.0785 8.57513 38.0374 8.57513 36.6933ZM0.289532 35.0169C0.289532 36.4982 1.2587 36.9393 2.64298 37.2624C4.06241 37.5846 4.32102 37.8005 4.32102 38.2834C4.32102 38.8525 3.90085 39.0994 3.01036 39.0994C2.28893 39.0994 1.61276 38.8534 1.08549 38.2391L0 39.2065C0.56911 40.046 1.66709 40.5707 2.92332 40.5707C4.97797 40.5707 5.87769 39.6032 5.87769 38.1738C5.87769 36.5401 4.55538 36.1333 3.36109 35.8538C2.1668 35.5742 1.8462 35.4228 1.8462 34.9499C1.8462 34.6177 2.11407 34.272 2.92087 34.272C3.61049 34.272 4.14694 34.5532 4.63068 35.0462L5.71535 33.9941C5.00648 33.2535 4.14691 32.8124 2.97522 32.8124C1.49218 32.8124 0.288715 33.651 0.288715 35.016L0.289532 35.0169ZM67.0729 32.9296V40.4619H69.3192C71.2542 40.4619 73.1658 39.3454 73.1658 36.7016C73.1658 33.9481 71.5756 32.9379 69.4264 32.9379L67.0729 32.9296ZM68.5769 34.3917H69.3753C70.963 34.3917 71.6182 35.155 71.6182 36.6933C71.6182 38.0683 70.8985 38.9923 69.3192 38.9923H68.5769V34.3917ZM63.6875 32.9296V37.1544C63.6875 38.3579 63.0967 39.0994 62.1418 39.0994C61.1869 39.0994 60.6018 38.3361 60.6018 37.1326V32.9287H59.0978V37.1536C59.0978 39.3463 60.3223 40.5707 62.141 40.5707C64.0542 40.5707 65.1924 39.3128 65.1924 37.1326V32.9287L63.6875 32.9296ZM45.8627 32.9296V40.4619H50.3838V38.9789H47.3675V32.9388L45.8627 32.9296ZM31.039 32.9296V40.4619H33.2846C35.2196 40.4619 37.1327 39.3454 37.1327 36.7016C37.1327 33.9481 35.5426 32.9379 33.3934 32.9379L31.039 32.9296ZM32.543 34.3917H33.3398C34.9299 34.3917 35.5861 35.155 35.5861 36.6933C35.5861 38.0683 34.8647 38.9923 33.2846 38.9923H32.5439L32.543 34.3917ZM27.6219 32.9296V36.1116L27.6428 37.7561C27.5457 37.5611 27.3081 37.187 27.1173 36.9066L24.45 32.9296H23.0105V40.4619H24.4935V37.1519L24.4709 35.5073C24.568 35.6998 24.8157 36.0764 24.9982 36.3568L27.76 40.4619H29.1041V32.9296H27.6219ZM19.6267 32.9296V37.1544C19.6267 38.3579 19.0325 39.0994 18.0784 39.0994C17.1243 39.0994 16.5409 38.3361 16.5409 37.1326V32.9287H15.0345V37.1536C15.0345 39.3463 16.2623 40.5707 18.0776 40.5707C19.9891 40.5707 21.129 39.3128 21.129 37.1326V32.9287L19.6267 32.9296Z" fill="url(#paint1_linear)"/>
<defs>
<linearGradient id="paint0_linear" x1="95.1954" y1="-10.3528" x2="95.1954" y2="37.069" gradientUnits="userSpaceOnUse">
<stop stop-color="#FAA21B"/>
<stop offset="1" stop-color="#F15623"/>
</linearGradient>
<linearGradient id="paint1_linear" x1="127.279" y1="-33.1054" x2="127.279" y2="40.5841" gradientUnits="userSpaceOnUse">
<stop stop-color="#FAA21B"/>
<stop offset="1" stop-color="#F15623"/>
</linearGradient>
</defs>
</svg>
