<svg width="96" height="48" viewBox="0 0 96 48" fill="none" xmlns="http://www.w3.org/2000/svg">
<path d="M37.2127 25.9192L33.3084 16.1858H31.2125L27.3256 25.9202L23.465 16.1858H21.1455L26.9749 30.8275L27.0047 30.9026H27.6053L32.2488 19.3815L36.8446 30.9026H37.4557L43.3332 16.1858H41.0341L37.2127 25.9192Z" fill="#363A45"/>
<path d="M47.9786 16.1858H45.6929V30.841H47.9786V16.1858Z" fill="#363A45"/>
<path d="M56.8757 22.8717L55.3113 21.9388C54.6238 21.5322 54.12 21.1416 53.815 20.7776C53.5179 20.4246 53.3674 20.0425 53.3674 19.6424C53.3674 19.1927 53.5621 18.8332 53.9631 18.5428C54.3699 18.2473 54.901 18.0976 55.5414 18.0976C56.6909 18.0976 57.7829 18.5908 58.7859 19.5628L58.9876 19.7581V17.0701L58.935 17.0345C57.923 16.348 56.7948 16 55.5826 16C54.3098 16 53.2581 16.368 52.4573 17.0936C51.6535 17.8227 51.2456 18.7831 51.2456 19.9484C51.2456 20.727 51.4612 21.4255 51.887 22.0249C52.3077 22.6168 53.0201 23.2242 54.0048 23.8306L55.5602 24.7825C56.7729 25.5426 57.3874 26.3483 57.3874 27.1776C57.3874 27.6863 57.1922 28.0984 56.7903 28.4374C56.3879 28.7769 55.8747 28.9492 55.2647 28.9492C53.8558 28.9492 52.5954 28.2522 51.5188 26.8771L51.3062 26.6057V29.6327L51.3539 29.6688C52.5298 30.5561 53.8523 31.0062 55.2845 31.0062C56.5379 31.0062 57.5727 30.6307 58.3602 29.8906C59.1496 29.148 59.5495 28.1705 59.5495 26.9858C59.5505 25.3248 58.6508 23.9408 56.8757 22.8717Z" fill="#363A45"/>
<path d="M61.395 18.2421H66.2984V30.8408H68.594V18.2421H73.5793V16.165H61.395V18.2421Z" fill="#363A45"/>
<path d="M78.6305 16.1858H76.3447V30.841H78.6305V16.1858Z" fill="#363A45"/>
<path d="M88.8154 16.103H87.2207L81.0471 30.6736L80.9761 30.8409H83.3393L85.1263 26.569H91.0714L92.9771 30.8409H95.3333L88.8154 16.103ZM90.1235 24.492H86.0379L88.0032 19.6954L90.1235 24.492Z" fill="#363A45"/>
<path d="M18.2874 21.8567C18.2874 21.8567 17.8636 22.707 15.7478 24.0509C14.8461 24.6228 12.9732 25.2312 10.5653 25.4655C9.26516 25.5927 6.87162 25.4896 5.84475 25.4896C4.81242 25.4896 4.33947 25.7089 3.41345 26.7595C0 30.6382 0 30.6382 0 30.6382C0 30.6382 1.18187 30.6442 2.0746 30.6442C2.96733 30.6442 8.55028 30.9707 11.0273 30.2842C19.0718 28.0554 18.2874 21.8567 18.2874 21.8567Z" fill="#148EE0"/>
<path d="M18.0713 19.3926C18.4583 17.0141 17.1254 16.3601 17.1254 16.3601C17.1254 16.3601 17.1815 18.2965 13.6508 18.7071C10.5171 19.0716 0 18.7967 0 18.7967C0 18.7967 0 18.7967 3.38017 22.7035C4.29575 23.7626 4.78162 23.8853 5.81047 23.9589C6.83982 24.0285 9.11115 24.0039 10.6507 23.8853C12.3338 23.7551 14.7323 23.2017 16.3544 21.9359C17.1865 21.2874 17.9098 20.3861 18.0713 19.3926Z" fill="#54BBFF"/>
</svg>
